<svg t="1759411159" class="icon" viewBox="0 0 1024 1024" version="1.1" xmlns="http://www.w3.org/2000/svg" p-id="4449" width="32" height="32"><path d="M512 85.333333c235.648 0 426.666667 191.018667 426.666667 426.666667s-191.018667 426.666667-426.666667 426.666667S85.333333 747.648 85.333333 512 276.352 85.333333 512 85.333333z m0 64c-200.298667 0-362.666667 162.368-362.666667 362.666667s162.368 362.666667 362.666667 362.666667 362.666667-162.368 362.666667-362.666667-162.368-362.666667-362.666667-362.666667z m0 64c164.949333 0 298.666667 133.717333 298.666667 298.666667s-133.717333 298.666667-298.666667 298.666667-298.666667-133.717333-298.666667-298.666667 133.717333-298.666667 298.666667-298.666667z m0 64c-129.6 0-234.666667 105.066667-234.666667 234.666667s105.066667 234.666667 234.666667 234.666667 234.666667-105.066667 234.666667-234.666667-105.066667-234.666667-234.666667-234.666667z m-32 106.666667a32 32 0 0 1 32 32v96h96a32 32 0 0 1 0 64h-128a32 32 0 0 1-32-32v-128a32 32 0 0 1 32-32z" fill="#ff6b6b" p-id="4450"></path></svg>