<svg t="1759412000" class="icon" viewBox="0 0 1024 1024" version="1.1" xmlns="http://www.w3.org/2000/svg" p-id="8449" width="32" height="32"><path d="M512 320c-106.039 0-192 85.961-192 192s85.961 192 192 192 192-85.961 192-192-85.961-192-192-192z m0 320c-70.692 0-128-57.308-128-128s57.308-128 128-128 128 57.308 128 128-57.308 128-128 128z" fill="#8a8a8a" p-id="8450"></path><path d="M800 448h-29.456a286.893 286.893 0 0 0-34.936-84.344l20.8-20.8a32 32 0 0 0 0-45.256l-45.256-45.256a32 32 0 0 0-45.256 0l-20.8 20.8A286.893 286.893 0 0 0 560.8 238.208V208a32 32 0 0 0-32-32h-64a32 32 0 0 0-32 32v30.208a286.893 286.893 0 0 0-84.344 34.936l-20.8-20.8a32 32 0 0 0-45.256 0l-45.256 45.256a32 32 0 0 0 0 45.256l20.8 20.8A286.893 286.893 0 0 0 222.208 448H192a32 32 0 0 0-32 32v64a32 32 0 0 0 32 32h30.208a286.893 286.893 0 0 0 34.936 84.344l-20.8 20.8a32 32 0 0 0 0 45.256l45.256 45.256a32 32 0 0 0 45.256 0l20.8-20.8a286.893 286.893 0 0 0 84.344 34.936V816a32 32 0 0 0 32 32h64a32 32 0 0 0 32-32v-30.208a286.893 286.893 0 0 0 84.344-34.936l20.8 20.8a32 32 0 0 0 45.256 0l45.256-45.256a32 32 0 0 0 0-45.256l-20.8-20.8a286.893 286.893 0 0 0 34.936-84.344H800a32 32 0 0 0 32-32v-64a32 32 0 0 0-32-32z m-32 64h-36.584a32 32 0 0 0-31.16 24.8 222.952 222.952 0 0 1-44.832 108.144 32 32 0 0 0 2.568 39.768l25.856 25.856-22.632 22.632-25.856-25.856a32 32 0 0 0-39.768-2.568 222.952 222.952 0 0 1-108.144 44.832 32 32 0 0 0-24.8 31.16V816h-32v-36.584a32 32 0 0 0-24.8-31.16 222.952 222.952 0 0 1-108.144-44.832 32 32 0 0 0-39.768 2.568l-25.856 25.856-22.632-22.632 25.856-25.856a32 32 0 0 0 2.568-39.768 222.952 222.952 0 0 1-44.832-108.144 32 32 0 0 0-31.16-24.8H192v-32h36.584a32 32 0 0 0 31.16-24.8 222.952 222.952 0 0 1 44.832-108.144 32 32 0 0 0-2.568-39.768l-25.856-25.856 22.632-22.632 25.856 25.856a32 32 0 0 0 39.768 2.568 222.952 222.952 0 0 1 108.144-44.832 32 32 0 0 0 24.8-31.16V208h32v36.584a32 32 0 0 0 24.8 31.16 222.952 222.952 0 0 1 108.144 44.832 32 32 0 0 0 39.768-2.568l25.856-25.856 22.632 22.632-25.856 25.856a32 32 0 0 0-2.568 39.768 222.952 222.952 0 0 1 44.832 108.144 32 32 0 0 0 31.16 24.8H768v32z" fill="#8a8a8a" p-id="8451"></path></svg>