<svg t="1759411390" class="icon" viewBox="0 0 1024 1024" version="1.1" xmlns="http://www.w3.org/2000/svg" p-id="5449" width="32" height="32"><path d="M832 128H192c-35.2 0-64 28.8-64 64v640c0 35.2 28.8 64 64 64h640c35.2 0 64-28.8 64-64V192c0-35.2-28.8-64-64-64z m0 64v640H192V192h640z" fill="#ff6b6b" p-id="5450"></path><path d="M320 448h384c19.2 0 32-12.8 32-32s-12.8-32-32-32H320c-19.2 0-32 12.8-32 32s12.8 32 32 32zM320 640h384c19.2 0 32-12.8 32-32s-12.8-32-32-32H320c-19.2 0-32 12.8-32 32s12.8 32 32 32z" fill="#ff6b6b" p-id="5451"></path></svg>